mtllib container-yellow.mtl
g acc_1
usemtl acc
v 0.024239998 0.054 0.06
v 0.02 0.048000004 0.06
v 0.054 0.054 0.06
v 0.054 0.024239998 0.06
v 0.048000004 0.02 0.06
v 0.048000004 0.02 0.06
v 0.048000004 0.040000003 0.06
v 0.040000003 0.048000004 0.06
v 0.02 0.048000004 0.06
v 0.054 -0.024239998 0.06
v 0.048000004 -0.02 0.06
v 0.054 -0.053999998 0.06
v 0.024239998 -0.053999998 0.06
v 0.02 -0.048 0.06
v 0.02 -0.048 0.06
v 0.040000003 -0.048 0.06
v 0.048000004 -0.04 0.06
v 0.048000004 -0.02 0.06
v -0.024239998 -0.053999998 0.06
v -0.02 -0.048 0.06
v -0.053999998 -0.053999998 0.06
v -0.053999998 -0.024239998 0.06
v -0.048 -0.02 0.06
v -0.048 -0.02 0.06
v -0.048 -0.04 0.06
v -0.04 -0.048 0.06
v -0.02 -0.048 0.06
v -0.06 0.048000004 0.040000003
v -0.06 0.048000004 0.02
v -0.06 0.040000003 0.048000004
v -0.06 0.02 0.048000004
v -0.06 0.02 0.048000004
v -0.06 0.024239998 0.054
v -0.06 0.054 0.054
v -0.06 0.054 0.024239998
v -0.06 0.048000004 0.02
v -0.06 -0.04 0.048000004
v -0.06 -0.02 0.048000004
v -0.06 -0.048 0.040000003
v -0.06 -0.048 0.02
v -0.06 -0.048 0.02
v -0.06 -0.053999998 0.024239998
v -0.06 -0.053999998 0.054
v -0.06 -0.024239998 0.054
v -0.06 -0.02 0.048000004
v -0.06 -0.048 -0.04
v -0.06 -0.048 -0.02
v -0.06 -0.04 -0.048
v -0.06 -0.02 -0.048
v -0.06 -0.02 -0.048
v -0.06 -0.024239998 -0.053999998
v -0.06 -0.053999998 -0.053999998
v -0.06 -0.053999998 -0.024239998
v -0.06 -0.048 -0.02
v -0.024239998 0.054 -0.06
v -0.02 0.048000004 -0.06
v -0.053999998 0.054 -0.06
v -0.053999998 0.024239998 -0.06
v -0.048 0.02 -0.06
v -0.048 0.02 -0.06
v -0.048 0.040000003 -0.06
v -0.04 0.048000004 -0.06
v -0.02 0.048000004 -0.06
v -0.053999998 -0.024239998 -0.06
v -0.048 -0.02 -0.06
v -0.053999998 -0.053999998 -0.06
v -0.024239998 -0.053999998 -0.06
v -0.02 -0.048 -0.06
v -0.02 -0.048 -0.06
v -0.04 -0.048 -0.06
v -0.048 -0.04 -0.06
v -0.048 -0.02 -0.06
v 0.024239998 -0.053999998 -0.06
v 0.02 -0.048 -0.06
v 0.054 -0.053999998 -0.06
v 0.054 -0.024239998 -0.06
v 0.048000004 -0.02 -0.06
v 0.048000004 -0.02 -0.06
v 0.048000004 -0.04 -0.06
v 0.040000003 -0.048 -0.06
v 0.02 -0.048 -0.06
v 0.06 0.054 -0.024239998
v 0.06 0.048000004 -0.02
v 0.06 0.054 -0.053999998
v 0.06 0.024239998 -0.053999998
v 0.06 0.02 -0.048
v 0.06 0.02 -0.048
v 0.06 0.040000003 -0.048
v 0.06 0.048000004 -0.04
v 0.06 0.048000004 -0.02
v 0.06 -0.024239998 -0.053999998
v 0.06 -0.02 -0.048
v 0.06 -0.053999998 -0.053999998
v 0.06 -0.053999998 -0.024239998
v 0.06 -0.048 -0.02
v 0.06 -0.048 -0.02
v 0.06 -0.048 -0.04
v 0.06 -0.04 -0.048
v 0.06 -0.02 -0.048
v 0.06 -0.053999998 0.024239998
v 0.06 -0.048 0.02
v 0.06 -0.053999998 0.054
v 0.06 -0.024239998 0.054
v 0.06 -0.02 0.048000004
v 0.06 -0.02 0.048000004
v 0.06 -0.04 0.048000004
v 0.06 -0.048 0.040000003
v 0.06 -0.048 0.02
v 0.024239998 -0.06 0.054
v 0.02 -0.06 0.048000004
v 0.054 -0.06 0.054
v 0.054 -0.06 0.024239998
v 0.048000004 -0.06 0.02
v 0.048000004 -0.06 0.02
v 0.048000004 -0.06 0.040000003
v 0.040000003 -0.06 0.048000004
v 0.02 -0.06 0.048000004
v 0.054 -0.06 -0.024239998
v 0.048000004 -0.06 -0.02
v 0.054 -0.06 -0.053999998
v 0.024239998 -0.06 -0.053999998
v 0.02 -0.06 -0.048
v 0.02 -0.06 -0.048
v 0.040000003 -0.06 -0.048
v 0.048000004 -0.06 -0.04
v 0.048000004 -0.06 -0.02
v -0.024239998 -0.06 -0.053999998
v -0.02 -0.06 -0.048
v -0.053999998 -0.06 -0.053999998
v -0.053999998 -0.06 -0.024239998
v -0.048 -0.06 -0.02
v -0.048 -0.06 -0.02
v -0.048 -0.06 -0.04
v -0.04 -0.06 -0.048
v -0.02 -0.06 -0.048
v -0.048 -0.06 0.040000003
v -0.048 -0.06 0.02
v -0.048 -0.06 0.02
v -0.053999998 -0.06 0.024239998
v -0.053999998 -0.06 0.054
v -0.024239998 -0.06 0.054
v -0.02 -0.06 0.048000004
v -0.02 -0.06 0.048000004
v -0.04 -0.06 0.048000004
v -0.053999998 0.06 0.054
v -0.024239998 0.06 0.054
v -0.053999998 0.06 0.024239998
v -0.0532 0.06 0.02367
v -0.0532 0.06 0.048499998
v -0.048499998 0.06 0.053200003
v -0.02367 0.06 0.053200003
v -0.053999998 0.06 -0.053999998
v -0.053999998 0.06 -0.024239998
v -0.024239998 0.06 -0.053999998
v -0.02367 0.06 -0.0532
v -0.048499998 0.06 -0.0532
v -0.0532 0.06 -0.048499998
v -0.0532 0.06 -0.02367
v -0.048 0.040000003 0.06
v -0.048 0.02 0.06
v -0.048 0.02 0.06
v -0.053999998 0.024239998 0.06
v -0.053999998 0.054 0.06
v -0.024239998 0.054 0.06
v -0.02 0.048000004 0.06
v -0.02 0.048000004 0.06
v -0.04 0.048000004 0.06
v 0.048000004 0.040000003 -0.06
v 0.048000004 0.02 -0.06
v 0.048000004 0.02 -0.06
v 0.054 0.024239998 -0.06
v 0.054 0.054 -0.06
v 0.024239998 0.054 -0.06
v 0.02 0.048000004 -0.06
v 0.02 0.048000004 -0.06
v 0.040000003 0.048000004 -0.06
v 0.06 0.040000003 0.048000004
v 0.06 0.02 0.048000004
v 0.06 0.02 0.048000004
v 0.06 0.024239998 0.054
v 0.06 0.054 0.054
v 0.06 0.054 0.024239998
v 0.06 0.048000004 0.02
v 0.06 0.048000004 0.02
v 0.06 0.048000004 0.040000003
v -0.06 0.048000004 -0.02
v -0.06 0.048000004 -0.04
v -0.06 0.048000004 -0.02
v -0.06 0.054 -0.024239998
v -0.06 0.054 -0.053999998
v -0.06 0.024239998 -0.053999998
v -0.06 0.02 -0.048
v -0.06 0.02 -0.048
v -0.06 0.040000003 -0.048
v 0.053200003 0.06 0.02367
v 0.053200003 0.06 0.048499998
v 0.054 0.06 0.024239998
v 0.054 0.06 0.054
v 0.024239998 0.06 0.054
v 0.02367 0.06 0.053200003
v 0.048499998 0.06 0.053200003
v 0.02367 0.06 -0.0532
v 0.048499998 0.06 -0.0532
v 0.024239998 0.06 -0.053999998
v 0.054 0.06 -0.053999998
v 0.054 0.06 -0.024239998
v 0.053200003 0.06 -0.02367
v 0.053200003 0.06 -0.048499998
v -0.053999998 0.024239998 -0.06
v -0.053999998 0.054 -0.06
v -0.06 0.024239998 -0.053999998
v -0.06 0.054 -0.053999998
v -0.053999998 0.06 -0.053999998
v -0.053999998 0.054 -0.06
v -0.024239998 0.054 -0.06
v -0.024239998 0.06 -0.053999998
v -0.053999998 0.06 -0.053999998
v -0.053999998 0.054 -0.06
v -0.06 0.054 -0.053999998
v -0.06 0.054 -0.024239998
v -0.06 0.054 -0.053999998
v -0.053999998 0.06 -0.024239998
v -0.053999998 0.06 -0.053999998
v -0.053999998 -0.053999998 -0.06
v -0.053999998 -0.06 -0.053999998
v -0.024239998 -0.06 -0.053999998
v -0.024239998 -0.053999998 -0.06
v -0.06 -0.024239998 -0.053999998
v -0.06 -0.053999998 -0.053999998
v -0.053999998 -0.024239998 -0.06
v -0.053999998 -0.053999998 -0.06
v -0.06 -0.053999998 -0.053999998
v -0.053999998 -0.053999998 -0.06
v -0.053999998 -0.06 -0.053999998
v -0.053999998 -0.06 -0.024239998
v -0.053999998 -0.06 -0.053999998
v -0.06 -0.053999998 -0.024239998
v -0.06 -0.053999998 -0.053999998
v 0.06 0.054 -0.053999998
v 0.054 0.054 -0.06
v 0.054 0.024239998 -0.06
v 0.06 0.024239998 -0.053999998
v 0.054 0.06 -0.053999998
v 0.06 0.054 -0.053999998
v 0.06 0.054 -0.024239998
v 0.054 0.06 -0.024239998
v 0.054 0.06 -0.053999998
v 0.06 0.054 -0.053999998
v 0.054 0.054 -0.06
v 0.054 0.06 -0.053999998
v 0.054 0.054 -0.06
v 0.024239998 0.06 -0.053999998
v 0.024239998 0.054 -0.06
v 0.06 -0.053999998 -0.053999998
v 0.054 -0.06 -0.053999998
v 0.054 -0.06 -0.024239998
v 0.06 -0.053999998 -0.024239998
v 0.054 -0.053999998 -0.06
v 0.06 -0.053999998 -0.053999998
v 0.06 -0.024239998 -0.053999998
v 0.054 -0.024239998 -0.06
v 0.054 -0.053999998 -0.06
v 0.06 -0.053999998 -0.053999998
v 0.054 -0.06 -0.053999998
v 0.054 -0.053999998 -0.06
v 0.054 -0.06 -0.053999998
v 0.024239998 -0.053999998 -0.06
v 0.024239998 -0.06 -0.053999998
v 0.054 -0.06 0.054
v 0.06 -0.053999998 0.054
v 0.06 -0.053999998 0.024239998
v 0.054 -0.06 0.024239998
v 0.054 -0.053999998 0.06
v 0.054 -0.06 0.054
v 0.024239998 -0.06 0.054
v 0.024239998 -0.053999998 0.06
v 0.054 -0.053999998 0.06
v 0.054 -0.06 0.054
v 0.06 -0.053999998 0.054
v 0.054 -0.053999998 0.06
v 0.06 -0.053999998 0.054
v 0.054 -0.024239998 0.06
v 0.06 -0.024239998 0.054
v 0.054 0.06 0.054
v 0.054 0.054 0.06
v 0.024239998 0.054 0.06
v 0.024239998 0.06 0.054
v 0.06 0.054 0.054
v 0.054 0.06 0.054
v 0.054 0.06 0.024239998
v 0.06 0.054 0.024239998
v 0.06 0.054 0.054
v 0.054 0.06 0.054
v 0.054 0.054 0.06
v 0.06 0.054 0.054
v 0.054 0.054 0.06
v 0.06 0.024239998 0.054
v 0.054 0.024239998 0.06
v -0.06 -0.053999998 0.024239998
v -0.06 -0.053999998 0.054
v -0.053999998 -0.06 0.024239998
v -0.053999998 -0.06 0.054
v -0.053999998 -0.024239998 0.06
v -0.053999998 -0.053999998 0.06
v -0.06 -0.024239998 0.054
v -0.06 -0.053999998 0.054
v -0.053999998 -0.053999998 0.06
v -0.06 -0.053999998 0.054
v -0.053999998 -0.06 0.054
v -0.053999998 -0.053999998 0.06
v -0.053999998 -0.06 0.054
v -0.024239998 -0.053999998 0.06
v -0.024239998 -0.06 0.054
v -0.053999998 0.054 0.06
v -0.053999998 0.06 0.054
v -0.024239998 0.06 0.054
v -0.024239998 0.054 0.06
v -0.06 0.024239998 0.054
v -0.06 0.054 0.054
v -0.053999998 0.024239998 0.06
v -0.053999998 0.054 0.06
v -0.06 0.054 0.054
v -0.053999998 0.054 0.06
v -0.053999998 0.06 0.054
v -0.053999998 0.06 0.024239998
v -0.053999998 0.06 0.054
v -0.06 0.054 0.024239998
v -0.06 0.054 0.054
v 0.02 -0.06 0.048000004
v 0.02 -0.048 0.06
v 0.024239998 -0.053999998 0.06
v 0.024239998 -0.06 0.054
v -0.024239998 -0.053999998 0.06
v -0.02 -0.048 0.06
v -0.024239998 -0.06 0.054
v -0.02 -0.06 0.048000004
v -0.021979999 0.0588 0.052000005
v -0.02 0.055999998 0.052000005
v -0.02367 0.06 0.053200003
v -0.024239998 0.06 0.054
v -0.024239998 0.054 0.06
v -0.02 0.048000004 0.06
v 0.024239998 0.06 0.054
v 0.024239998 0.054 0.06
v 0.02 0.048000004 0.06
v 0.02 0.055999998 0.052000005
v 0.021979999 0.0588 0.052000005
v 0.02367 0.06 0.053200003
v -0.053999998 0.024239998 0.06
v -0.048 0.02 0.06
v -0.06 0.024239998 0.054
v -0.06 0.02 0.048000004
v -0.06 -0.02 0.048000004
v -0.048 -0.02 0.06
v -0.053999998 -0.024239998 0.06
v -0.06 -0.024239998 0.054
v -0.06 -0.053999998 -0.024239998
v -0.06 -0.048 -0.02
v -0.053999998 -0.06 -0.024239998
v -0.048 -0.06 -0.02
v -0.048 -0.06 0.02
v -0.06 -0.048 0.02
v -0.06 -0.053999998 0.024239998
v -0.053999998 -0.06 0.024239998
v -0.051999997 0.0588 -0.021979999
v -0.051999997 0.055999998 -0.02
v -0.0532 0.06 -0.02367
v -0.053999998 0.06 -0.024239998
v -0.06 0.054 -0.024239998
v -0.06 0.048000004 -0.02
v -0.053999998 0.06 0.024239998
v -0.06 0.054 0.024239998
v -0.06 0.048000004 0.02
v -0.051999997 0.055999998 0.02
v -0.051999997 0.0588 0.021979999
v -0.0532 0.06 0.02367
v -0.06 0.024239998 -0.053999998
v -0.06 0.02 -0.048
v -0.053999998 0.024239998 -0.06
v -0.048 0.02 -0.06
v -0.02367 0.06 -0.0532
v -0.024239998 0.06 -0.053999998
v -0.021979999 0.0588 -0.051999997
v -0.02 0.055999998 -0.051999997
v -0.02 0.048000004 -0.06
v -0.024239998 0.054 -0.06
v 0.02 0.055999998 -0.051999997
v 0.02 0.048000004 -0.06
v 0.024239998 0.054 -0.06
v 0.024239998 0.06 -0.053999998
v 0.02367 0.06 -0.0532
v 0.021979999 0.0588 -0.051999997
v -0.024239998 -0.06 -0.053999998
v -0.02 -0.06 -0.048
v -0.024239998 -0.053999998 -0.06
v -0.02 -0.048 -0.06
v 0.02 -0.048 -0.06
v 0.02 -0.06 -0.048
v 0.024239998 -0.06 -0.053999998
v 0.024239998 -0.053999998 -0.06
v 0.048000004 -0.06 -0.02
v 0.06 -0.048 -0.02
v 0.06 -0.053999998 -0.024239998
v 0.054 -0.06 -0.024239998
v 0.06 -0.053999998 0.024239998
v 0.06 -0.048 0.02
v 0.054 -0.06 0.024239998
v 0.048000004 -0.06 0.02
v 0.052000005 0.0588 0.021979999
v 0.052000005 0.055999998 0.02
v 0.053200003 0.06 0.02367
v 0.054 0.06 0.024239998
v 0.06 0.054 0.024239998
v 0.06 0.048000004 0.02
v 0.054 0.06 -0.024239998
v 0.06 0.054 -0.024239998
v 0.06 0.048000004 -0.02
v 0.052000005 0.055999998 -0.02
v 0.052000005 0.0588 -0.021979999
v 0.053200003 0.06 -0.02367
v 0.048000004 0.02 -0.06
v 0.06 0.02 -0.048
v 0.06 0.024239998 -0.053999998
v 0.054 0.024239998 -0.06
v 0.06 -0.024239998 -0.053999998
v 0.06 -0.02 -0.048
v 0.054 -0.024239998 -0.06
v 0.048000004 -0.02 -0.06
v 0.054 -0.024239998 0.06
v 0.048000004 -0.02 0.06
v 0.06 -0.024239998 0.054
v 0.06 -0.02 0.048000004
v 0.06 0.02 0.048000004
v 0.048000004 0.02 0.06
v 0.054 0.024239998 0.06
v 0.06 0.024239998 0.054
v -0.051999997 0.0588 0.021979999
v -0.051999997 0.0588 0.048000004
v -0.0532 0.06 0.048499998
v -0.0532 0.06 0.02367
v -0.051999997 0.0588 0.048000004
v -0.0532 0.06 0.048499998
v -0.048499998 0.06 0.053200003
v -0.048 0.0588 0.052000005
v -0.048 0.0588 0.052000005
v -0.021979999 0.0588 0.052000005
v -0.02367 0.06 0.053200003
v -0.048499998 0.06 0.053200003
v 0.053200003 0.06 0.02367
v 0.053200003 0.06 0.048499998
v 0.052000005 0.0588 0.048000004
v 0.052000005 0.0588 0.021979999
v 0.053200003 0.06 0.048499998
v 0.052000005 0.0588 0.048000004
v 0.048000004 0.0588 0.052000005
v 0.048499998 0.06 0.053200003
v 0.021979999 0.0588 0.052000005
v 0.048000004 0.0588 0.052000005
v 0.048499998 0.06 0.053200003
v 0.02367 0.06 0.053200003
v 0.02367 0.06 -0.0532
v 0.048499998 0.06 -0.0532
v 0.048000004 0.0588 -0.051999997
v 0.021979999 0.0588 -0.051999997
v 0.048499998 0.06 -0.0532
v 0.048000004 0.0588 -0.051999997
v 0.052000005 0.0588 -0.048
v 0.053200003 0.06 -0.048499998
v 0.052000005 0.0588 -0.021979999
v 0.052000005 0.0588 -0.048
v 0.053200003 0.06 -0.048499998
v 0.053200003 0.06 -0.02367
v -0.021979999 0.0588 -0.051999997
v -0.048 0.0588 -0.051999997
v -0.048499998 0.06 -0.0532
v -0.02367 0.06 -0.0532
v -0.048 0.0588 -0.051999997
v -0.048499998 0.06 -0.0532
v -0.0532 0.06 -0.048499998
v -0.051999997 0.0588 -0.048
v -0.051999997 0.0588 -0.048
v -0.051999997 0.0588 -0.021979999
v -0.0532 0.06 -0.02367
v -0.0532 0.06 -0.048499998
f 6 5 4
f 4 5 6
f 7 6 4
f 4 6 7
f 3 7 4
f 4 7 3
f 8 7 3
f 3 7 8
f 1 9 8
f 8 9 1
f 1 2 9
f 9 2 1
f 1 8 3
f 3 8 1
f 17 16 12
f 12 16 17
f 13 12 16
f 16 12 13
f 10 17 12
f 12 17 10
f 18 10 11
f 11 10 18
f 18 17 10
f 10 17 18
f 15 14 13
f 13 14 15
f 15 13 16
f 16 13 15
f 27 19 20
f 20 19 27
f 26 19 27
f 27 19 26
f 21 19 26
f 26 19 21
f 25 21 26
f 26 21 25
f 22 24 23
f 23 24 22
f 22 25 24
f 24 25 22
f 22 21 25
f 25 21 22
f 35 36 29
f 29 36 35
f 33 31 32
f 32 31 33
f 28 35 29
f 29 35 28
f 30 31 33
f 33 31 30
f 34 28 30
f 30 28 34
f 34 30 33
f 33 30 34
f 34 35 28
f 28 35 34
f 40 41 42
f 42 41 40
f 39 40 42
f 42 40 39
f 43 39 42
f 42 39 43
f 37 39 43
f 43 39 37
f 44 38 37
f 37 38 44
f 44 45 38
f 38 45 44
f 44 37 43
f 43 37 44
f 46 48 52
f 52 48 46
f 53 46 52
f 52 46 53
f 51 52 48
f 48 52 51
f 49 50 51
f 51 50 49
f 49 51 48
f 48 51 49
f 47 53 54
f 54 53 47
f 47 46 53
f 53 46 47
f 60 59 58
f 58 59 60
f 61 60 58
f 58 60 61
f 57 61 58
f 58 61 57
f 62 61 57
f 57 61 62
f 55 63 62
f 62 63 55
f 55 56 63
f 63 56 55
f 55 62 57
f 57 62 55
f 71 70 66
f 66 70 71
f 64 71 66
f 66 71 64
f 67 66 70
f 70 66 67
f 69 68 67
f 67 68 69
f 69 67 70
f 70 67 69
f 72 64 65
f 65 64 72
f 72 71 64
f 64 71 72
f 81 73 74
f 74 73 81
f 80 73 81
f 81 73 80
f 75 73 80
f 80 73 75
f 79 75 80
f 80 75 79
f 76 78 77
f 77 78 76
f 76 79 78
f 78 79 76
f 76 75 79
f 79 75 76
f 87 86 85
f 85 86 87
f 88 87 85
f 85 87 88
f 84 88 85
f 85 88 84
f 89 88 84
f 84 88 89
f 82 90 89
f 89 90 82
f 82 83 90
f 90 83 82
f 82 89 84
f 84 89 82
f 98 97 93
f 93 97 98
f 94 93 97
f 97 93 94
f 91 98 93
f 93 98 91
f 96 95 94
f 94 95 96
f 96 94 97
f 97 94 96
f 99 91 92
f 92 91 99
f 99 98 91
f 91 98 99
f 108 100 101
f 101 100 108
f 107 100 108
f 108 100 107
f 102 100 107
f 107 100 102
f 106 102 107
f 107 102 106
f 103 105 104
f 104 105 103
f 103 106 105
f 105 106 103
f 103 102 106
f 106 102 103
f 112 114 113
f 113 114 112
f 109 110 117
f 117 110 109
f 116 109 117
f 117 109 116
f 115 114 112
f 112 114 115
f 111 116 115
f 115 116 111
f 111 109 116
f 116 109 111
f 111 115 112
f 112 115 111
f 123 122 121
f 121 122 123
f 124 123 121
f 121 123 124
f 120 124 121
f 121 124 120
f 125 124 120
f 120 124 125
f 118 126 125
f 125 126 118
f 118 119 126
f 126 119 118
f 118 125 120
f 120 125 118
f 134 133 129
f 129 133 134
f 130 129 133
f 133 129 130
f 127 134 129
f 129 134 127
f 132 131 130
f 130 131 132
f 132 130 133
f 133 130 132
f 135 127 128
f 128 127 135
f 135 134 127
f 127 134 135
f 137 139 138
f 138 139 137
f 136 139 137
f 137 139 136
f 140 139 136
f 136 139 140
f 144 140 136
f 136 140 144
f 141 143 142
f 142 143 141
f 141 144 143
f 143 144 141
f 141 140 144
f 144 140 141
f 149 145 150
f 150 145 149
f 147 145 149
f 149 145 147
f 148 147 149
f 149 147 148
f 151 150 146
f 146 150 151
f 146 150 145
f 145 150 146
f 157 153 158
f 158 153 157
f 152 153 157
f 157 153 152
f 156 152 157
f 157 152 156
f 154 156 155
f 155 156 154
f 152 156 154
f 154 156 152
f 164 166 165
f 165 166 164
f 162 161 160
f 160 161 162
f 167 166 164
f 164 166 167
f 159 162 160
f 160 162 159
f 163 159 167
f 167 159 163
f 163 162 159
f 159 162 163
f 163 167 164
f 164 167 163
f 171 170 169
f 169 170 171
f 173 175 174
f 174 175 173
f 168 171 169
f 169 171 168
f 176 175 173
f 173 175 176
f 172 168 176
f 176 168 172
f 172 171 168
f 168 171 172
f 172 176 173
f 173 176 172
f 180 179 178
f 178 179 180
f 182 184 183
f 183 184 182
f 177 180 178
f 178 180 177
f 185 184 182
f 182 184 185
f 181 177 185
f 185 177 181
f 181 180 177
f 177 180 181
f 181 185 182
f 182 185 181
f 193 191 192
f 192 191 193
f 194 191 193
f 193 191 194
f 190 191 194
f 194 191 190
f 187 190 194
f 194 190 187
f 189 187 186
f 186 187 189
f 189 186 188
f 188 186 189
f 189 190 187
f 187 190 189
f 201 200 199
f 199 200 201
f 196 201 198
f 198 201 196
f 197 195 196
f 196 195 197
f 197 196 198
f 198 196 197
f 198 201 199
f 199 201 198
f 208 207 206
f 206 207 208
f 203 204 202
f 202 204 203
f 205 203 208
f 208 203 205
f 204 203 205
f 205 203 204
f 205 208 206
f 206 208 205
f 209 212 210
f 210 212 209
f 211 212 209
f 209 212 211
f 214 216 215
f 215 216 214
f 214 213 216
f 216 213 214
f 217 218 219
f 219 218 217
f 223 220 222
f 222 220 223
f 221 220 223
f 223 220 221
f 225 227 226
f 226 227 225
f 225 224 227
f 227 224 225
f 229 228 230
f 230 228 229
f 229 230 231
f 231 230 229
f 234 232 233
f 233 232 234
f 237 236 235
f 235 236 237
f 237 238 236
f 236 238 237
f 240 242 241
f 241 242 240
f 240 239 242
f 242 239 240
f 246 244 243
f 243 244 246
f 246 245 244
f 244 245 246
f 248 249 247
f 247 249 248
f 253 250 251
f 251 250 253
f 253 252 250
f 250 252 253
f 255 257 256
f 256 257 255
f 255 254 257
f 257 254 255
f 261 259 258
f 258 259 261
f 261 260 259
f 259 260 261
f 263 264 262
f 262 264 263
f 268 265 266
f 266 265 268
f 268 267 265
f 265 267 268
f 272 270 269
f 269 270 272
f 272 271 270
f 270 271 272
f 275 274 273
f 273 274 275
f 276 275 273
f 273 275 276
f 279 277 278
f 278 277 279
f 280 283 282
f 282 283 280
f 280 281 283
f 283 281 280
f 286 285 284
f 284 285 286
f 287 286 284
f 284 286 287
f 289 291 290
f 290 291 289
f 289 288 291
f 291 288 289
f 294 292 293
f 293 292 294
f 298 295 296
f 296 295 298
f 298 297 295
f 295 297 298
f 302 299 301
f 301 299 302
f 300 299 302
f 302 299 300
f 303 306 304
f 304 306 303
f 305 306 303
f 303 306 305
f 307 308 309
f 309 308 307
f 311 313 312
f 312 313 311
f 310 311 312
f 312 311 310
f 315 317 316
f 316 317 315
f 315 314 317
f 317 314 315
f 321 318 320
f 320 318 321
f 319 318 321
f 321 318 319
f 323 324 322
f 322 324 323
f 327 326 325
f 325 326 327
f 327 328 326
f 326 328 327
f 331 330 329
f 329 330 331
f 331 329 332
f 332 329 331
f 334 335 336
f 336 335 334
f 333 335 334
f 334 335 333
f 338 341 342
f 342 341 338
f 340 338 337
f 337 338 340
f 340 337 339
f 339 337 340
f 340 341 338
f 338 341 340
f 346 345 344
f 344 345 346
f 343 347 346
f 346 347 343
f 343 348 347
f 347 348 343
f 343 346 344
f 344 346 343
f 350 351 352
f 352 351 350
f 349 351 350
f 350 351 349
f 354 353 356
f 356 353 354
f 355 354 356
f 356 354 355
f 358 359 360
f 360 359 358
f 357 359 358
f 358 359 357
f 363 362 361
f 361 362 363
f 363 361 364
f 364 361 363
f 366 369 370
f 370 369 366
f 368 366 365
f 365 366 368
f 368 365 367
f 367 365 368
f 368 369 366
f 366 369 368
f 374 373 372
f 372 373 374
f 371 375 374
f 374 375 371
f 371 376 375
f 375 376 371
f 371 374 372
f 372 374 371
f 378 379 380
f 380 379 378
f 377 379 378
f 378 379 377
f 382 381 383
f 383 381 382
f 382 383 384
f 384 383 382
f 386 384 385
f 385 384 386
f 386 382 384
f 384 382 386
f 390 392 391
f 391 392 390
f 390 387 392
f 392 387 390
f 389 388 387
f 387 388 389
f 389 387 390
f 390 387 389
f 393 395 396
f 396 395 393
f 393 396 394
f 394 396 393
f 399 398 397
f 397 398 399
f 399 397 400
f 400 397 399
f 402 401 404
f 404 401 402
f 403 402 404
f 404 402 403
f 405 407 408
f 408 407 405
f 405 408 406
f 406 408 405
f 410 413 414
f 414 413 410
f 412 410 409
f 409 410 412
f 412 409 411
f 411 409 412
f 412 413 410
f 410 413 412
f 418 417 416
f 416 417 418
f 415 419 418
f 418 419 415
f 415 420 419
f 419 420 415
f 415 418 416
f 416 418 415
f 422 421 424
f 424 421 422
f 423 422 424
f 424 422 423
f 426 427 428
f 428 427 426
f 425 427 426
f 426 427 425
f 429 431 432
f 432 431 429
f 429 432 430
f 430 432 429
f 434 433 436
f 436 433 434
f 435 434 436
f 436 434 435
f 438 437 440
f 440 437 438
f 439 438 440
f 440 438 439
f 444 441 442
f 442 441 444
f 444 442 443
f 443 442 444
f 447 445 448
f 448 445 447
f 446 445 447
f 447 445 446
f 449 451 450
f 450 451 449
f 449 452 451
f 451 452 449
f 454 455 456
f 456 455 454
f 454 456 453
f 453 456 454
f 458 457 460
f 460 457 458
f 459 458 460
f 460 458 459
f 461 463 462
f 462 463 461
f 461 464 463
f 463 464 461
f 465 467 468
f 468 467 465
f 466 467 465
f 465 467 466
f 470 469 472
f 472 469 470
f 471 470 472
f 472 470 471
f 474 473 476
f 476 473 474
f 475 474 476
f 476 474 475
f 479 477 478
f 478 477 479
f 480 477 479
f 479 477 480
f 483 482 481
f 481 482 483
f 483 481 484
f 484 481 483
g body_485
usemtl body
v -0.02 0.05543 0.052000005
v -0.02 0.055999998 0.052000005
v -0.021979999 0.0588 0.052000005
v -0.048 0.0588 0.052000005
v -0.048 -0.048 0.052000005
v 0.048000004 -0.048 0.052000005
v 0.048000004 0.0588 0.052000005
v 0.021979999 0.0588 0.052000005
v 0.02 0.055999998 0.052000005
v 0.02 0.05543 0.052000005
v 0.02 0.055999998 -0.051999997
v 0.02 0.05543 -0.051999997
v 0.021979999 0.0588 -0.051999997
v 0.048000004 0.0588 -0.051999997
v 0.048000004 -0.048 -0.051999997
v -0.048 -0.048 -0.051999997
v -0.048 0.0588 -0.051999997
v -0.021979999 0.0588 -0.051999997
v -0.02 0.055999998 -0.051999997
v -0.02 0.05543 -0.051999997
v -0.051999997 0.055999998 -0.02
v -0.051999997 0.05543 -0.02
v -0.051999997 0.0588 -0.021979999
v -0.051999997 0.0588 -0.048
v -0.051999997 -0.048 -0.048
v -0.051999997 -0.048 0.048000004
v -0.051999997 0.0588 0.048000004
v -0.051999997 0.0588 0.021979999
v -0.051999997 0.055999998 0.02
v -0.051999997 0.05543 0.02
v 0.052000005 0.05543 0.02
v 0.052000005 0.055999998 0.02
v 0.052000005 0.0588 0.021979999
v 0.052000005 0.0588 0.048000004
v 0.052000005 -0.048 0.048000004
v 0.052000005 -0.048 -0.048
v 0.052000005 0.0588 -0.048
v 0.052000005 0.0588 -0.021979999
v 0.052000005 0.055999998 -0.02
v 0.052000005 0.05543 -0.02
v -0.048 -0.051999997 -0.048
v -0.048 -0.051999997 0.048000004
v 0.048000004 -0.051999997 0.048000004
v 0.048000004 -0.051999997 -0.048
v -0.048 -0.02 0.06
v -0.048 0.02 0.06
v -0.06 -0.02 0.048000004
v -0.06 0.02 0.048000004
v -0.06 -0.02 0.048000004
v -0.06 -0.02 0.048000004
v -0.048 -0.02 0.06
v -0.048 -0.02 0.06
v -0.048 0.02 0.06
v -0.06 0.02 0.048000004
v -0.06 0.02 0.048000004
v -0.048 0.02 0.06
v -0.06 -0.02 -0.048
v -0.06 0.02 -0.048
v -0.048 -0.02 -0.06
v -0.048 0.02 -0.06
v -0.048 -0.02 -0.06
v -0.048 -0.02 -0.06
v -0.06 -0.02 -0.048
v -0.06 -0.02 -0.048
v -0.06 0.02 -0.048
v -0.048 0.02 -0.06
v -0.048 0.02 -0.06
v -0.06 0.02 -0.048
v 0.048000004 -0.02 -0.06
v 0.048000004 0.02 -0.06
v 0.06 -0.02 -0.048
v 0.06 0.02 -0.048
v 0.06 -0.02 -0.048
v 0.06 -0.02 -0.048
v 0.048000004 -0.02 -0.06
v 0.048000004 -0.02 -0.06
v 0.048000004 0.02 -0.06
v 0.06 0.02 -0.048
v 0.06 0.02 -0.048
v 0.048000004 0.02 -0.06
v 0.06 -0.02 0.048000004
v 0.06 0.02 0.048000004
v 0.048000004 -0.02 0.06
v 0.048000004 0.02 0.06
v 0.048000004 -0.02 0.06
v 0.048000004 -0.02 0.06
v 0.06 -0.02 0.048000004
v 0.06 -0.02 0.048000004
v 0.06 0.02 0.048000004
v 0.048000004 0.02 0.06
v 0.048000004 0.02 0.06
v 0.06 0.02 0.048000004
v 0.06 0.048000004 0.02
v 0.06 0.048000004 -0.02
v 0.052570004 0.05543 0.02
v 0.052570004 0.05543 -0.02
v 0.052000005 0.05543 0.02
v 0.052000005 0.055999998 0.02
v 0.06 0.048000004 0.02
v 0.06 0.048000004 0.02
v 0.052570004 0.05543 0.02
v 0.06 0.048000004 -0.02
v 0.052570004 0.05543 -0.02
v 0.052000005 0.05543 -0.02
v 0.052000005 0.055999998 -0.02
v 0.06 0.048000004 -0.02
v -0.06 0.048000004 0.02
v -0.06 0.048000004 -0.02
v -0.05257 0.05543 -0.02
v -0.05257 0.05543 0.02
v -0.06 0.048000004 0.02
v -0.06 0.048000004 0.02
v -0.051999997 0.055999998 0.02
v -0.051999997 0.05543 0.02
v -0.05257 0.05543 0.02
v -0.05257 0.05543 -0.02
v -0.051999997 0.05543 -0.02
v -0.06 0.048000004 -0.02
v -0.06 0.048000004 -0.02
v -0.051999997 0.055999998 -0.02
v -0.06 -0.048 0.02
v -0.06 -0.048 -0.02
v -0.048 -0.06 0.02
v -0.048 -0.06 -0.02
v -0.048 -0.06 0.02
v -0.048 -0.06 0.02
v -0.06 -0.048 0.02
v -0.06 -0.048 0.02
v -0.06 -0.048 -0.02
v -0.048 -0.06 -0.02
v -0.048 -0.06 -0.02
v -0.06 -0.048 -0.02
v 0.048000004 -0.06 0.02
v 0.048000004 -0.06 -0.02
v 0.06 -0.048 0.02
v 0.06 -0.048 -0.02
v 0.06 -0.048 0.02
v 0.06 -0.048 0.02
v 0.048000004 -0.06 0.02
v 0.048000004 -0.06 0.02
v 0.048000004 -0.06 -0.02
v 0.06 -0.048 -0.02
v 0.06 -0.048 -0.02
v 0.048000004 -0.06 -0.02
v -0.02 0.048000004 -0.06
v 0.02 0.048000004 -0.06
v 0.02 0.05543 -0.05257
v -0.02 0.05543 -0.05257
v -0.02 0.048000004 -0.06
v -0.02 0.048000004 -0.06
v -0.02 0.055999998 -0.051999997
v -0.02 0.05543 -0.051999997
v -0.02 0.05543 -0.05257
v 0.02 0.05543 -0.05257
v 0.02 0.05543 -0.051999997
v 0.02 0.048000004 -0.06
v 0.02 0.048000004 -0.06
v 0.02 0.055999998 -0.051999997
v -0.02 0.048000004 0.06
v 0.02 0.048000004 0.06
v -0.02 0.05543 0.052570004
v 0.02 0.05543 0.052570004
v -0.02 0.05543 0.052000005
v -0.02 0.055999998 0.052000005
v -0.02 0.048000004 0.06
v -0.02 0.048000004 0.06
v -0.02 0.05543 0.052570004
v 0.02 0.048000004 0.06
v 0.02 0.05543 0.052570004
v 0.02 0.05543 0.052000005
v 0.02 0.055999998 0.052000005
v 0.02 0.048000004 0.06
v -0.02 -0.048 -0.06
v 0.02 -0.048 -0.06
v -0.02 -0.06 -0.048
v 0.02 -0.06 -0.048
v -0.02 -0.06 -0.048
v -0.02 -0.06 -0.048
v -0.02 -0.048 -0.06
v -0.02 -0.048 -0.06
v 0.02 -0.048 -0.06
v 0.02 -0.06 -0.048
v 0.02 -0.06 -0.048
v 0.02 -0.048 -0.06
v -0.02 -0.06 0.048000004
v 0.02 -0.06 0.048000004
v -0.02 -0.048 0.06
v 0.02 -0.048 0.06
v -0.02 -0.048 0.06
v -0.02 -0.048 0.06
v -0.02 -0.06 0.048000004
v -0.02 -0.06 0.048000004
v 0.02 -0.06 0.048000004
v 0.02 -0.048 0.06
v 0.02 -0.048 0.06
v 0.02 -0.06 0.048000004
v 0.052000005 0.0588 -0.048
v 0.052000005 -0.048 -0.048
v 0.048000004 0.0588 -0.051999997
v 0.048000004 -0.048 -0.051999997
v 0.052000005 -0.048 -0.048
v 0.048000004 -0.051999997 -0.048
v 0.048000004 -0.048 -0.051999997
v -0.048 0.0588 -0.051999997
v -0.048 -0.048 -0.051999997
v -0.051999997 0.0588 -0.048
v -0.051999997 -0.048 -0.048
v 0.048000004 -0.051999997 -0.048
v -0.048 -0.051999997 -0.048
v -0.048 -0.048 -0.051999997
v 0.048000004 -0.048 -0.051999997
v 0.052000005 -0.048 -0.048
v 0.052000005 -0.048 0.048000004
v 0.048000004 -0.051999997 0.048000004
v 0.048000004 -0.051999997 -0.048
v 0.048000004 0.0588 0.052000005
v 0.048000004 -0.048 0.052000005
v 0.052000005 0.0588 0.048000004
v 0.052000005 -0.048 0.048000004
v -0.048 -0.051999997 -0.048
v -0.048 -0.048 -0.051999997
v -0.051999997 -0.048 -0.048
v 0.048000004 -0.048 0.052000005
v 0.052000005 -0.048 0.048000004
v 0.048000004 -0.051999997 0.048000004
v -0.048 -0.051999997 -0.048
v -0.048 -0.051999997 0.048000004
v -0.051999997 -0.048 0.048000004
v -0.051999997 -0.048 -0.048
v 0.048000004 -0.048 0.052000005
v -0.048 -0.048 0.052000005
v -0.048 -0.051999997 0.048000004
v 0.048000004 -0.051999997 0.048000004
v -0.048 -0.048 0.052000005
v -0.048 -0.051999997 0.048000004
v -0.051999997 -0.048 0.048000004
v -0.051999997 0.0588 0.048000004
v -0.051999997 -0.048 0.048000004
v -0.048 0.0588 0.052000005
v -0.048 -0.048 0.052000005
v -0.048 -0.02 -0.06
v -0.06 -0.02 -0.048
v -0.06 -0.024239998 -0.053999998
v -0.053999998 -0.024239998 -0.06
v 0.040000003 -0.05996 0.048000004
v 0.040000003 -0.06 0.048000004
v -0.04 -0.05996 0.048000004
v -0.04 -0.06 0.048000004
v -0.02 -0.06 0.048000004
v 0.02 -0.06 0.048000004
v 0.048000004 -0.05996 0.040000003
v 0.048000004 -0.06 0.040000003
v 0.040000003 -0.05996 0.048000004
v 0.040000003 -0.06 0.048000004
v 0.048000004 -0.05996 -0.04
v 0.048000004 -0.06 -0.04
v 0.048000004 -0.05996 0.040000003
v 0.048000004 -0.06 0.040000003
v 0.048000004 -0.06 0.02
v 0.048000004 -0.06 -0.02
v 0.040000003 -0.05996 -0.048
v 0.040000003 -0.06 -0.048
v 0.048000004 -0.05996 -0.04
v 0.048000004 -0.06 -0.04
v -0.04 -0.05996 -0.048
v -0.04 -0.06 -0.048
v 0.040000003 -0.05996 -0.048
v 0.040000003 -0.06 -0.048
v 0.02 -0.06 -0.048
v -0.02 -0.06 -0.048
v -0.048 -0.05996 -0.04
v -0.048 -0.06 -0.04
v -0.04 -0.05996 -0.048
v -0.04 -0.06 -0.048
v -0.048 -0.05996 0.040000003
v -0.048 -0.06 0.040000003
v -0.048 -0.05996 -0.04
v -0.048 -0.06 -0.04
v -0.048 -0.06 -0.02
v -0.048 -0.06 0.02
v -0.04 -0.05996 0.048000004
v -0.04 -0.06 0.048000004
v -0.048 -0.05996 0.040000003
v -0.048 -0.06 0.040000003
v 0.048000004 -0.05996 0.040000003
v 0.040000003 -0.05996 0.048000004
v 0.048000004 -0.05996 -0.04
v 0.040000003 -0.05996 -0.048
v -0.04 -0.05996 -0.048
v -0.048 -0.05996 -0.04
v -0.048 -0.05996 0.040000003
v -0.04 -0.05996 0.048000004
v 0.0584 0.048000004 -0.04
v 0.06 0.048000004 -0.04
v 0.0584 0.048000004 0.040000003
v 0.06 0.048000004 0.040000003
v 0.06 0.048000004 0.02
v 0.06 0.048000004 -0.02
v 0.0584 0.040000003 -0.048
v 0.06 0.040000003 -0.048
v 0.0584 0.048000004 -0.04
v 0.06 0.048000004 -0.04
v 0.0584 -0.04 -0.048
v 0.06 -0.04 -0.048
v 0.0584 0.040000003 -0.048
v 0.06 0.040000003 -0.048
v 0.06 0.02 -0.048
v 0.06 -0.02 -0.048
v 0.0584 -0.048 -0.04
v 0.06 -0.048 -0.04
v 0.0584 -0.04 -0.048
v 0.06 -0.04 -0.048
v 0.0584 -0.048 0.040000003
v 0.06 -0.048 0.040000003
v 0.0584 -0.048 -0.04
v 0.06 -0.048 -0.04
v 0.06 -0.048 -0.02
v 0.06 -0.048 0.02
v 0.0584 -0.04 0.048000004
v 0.06 -0.04 0.048000004
v 0.0584 -0.048 0.040000003
v 0.06 -0.048 0.040000003
v 0.0584 0.040000003 0.048000004
v 0.06 0.040000003 0.048000004
v 0.0584 -0.04 0.048000004
v 0.06 -0.04 0.048000004
v 0.06 -0.02 0.048000004
v 0.06 0.02 0.048000004
v 0.0584 0.048000004 0.040000003
v 0.06 0.048000004 0.040000003
v 0.0584 0.040000003 0.048000004
v 0.06 0.040000003 0.048000004
v 0.0584 0.040000003 -0.048
v 0.0584 0.048000004 -0.04
v 0.0584 -0.04 -0.048
v 0.0584 -0.048 -0.04
v 0.0584 -0.048 0.040000003
v 0.0584 -0.04 0.048000004
v 0.0584 0.040000003 0.048000004
v 0.0584 0.048000004 0.040000003
v -0.04 0.048000004 -0.058399998
v -0.04 0.048000004 -0.06
v 0.040000003 0.048000004 -0.058399998
v 0.040000003 0.048000004 -0.06
v 0.02 0.048000004 -0.06
v -0.02 0.048000004 -0.06
v -0.048 0.040000003 -0.058399998
v -0.048 0.040000003 -0.06
v -0.04 0.048000004 -0.058399998
v -0.04 0.048000004 -0.06
v -0.048 -0.04 -0.058399998
v -0.048 -0.04 -0.06
v -0.048 0.040000003 -0.058399998
v -0.048 0.040000003 -0.06
v -0.048 0.02 -0.06
v -0.048 -0.02 -0.06
v -0.04 -0.048 -0.058399998
v -0.04 -0.048 -0.06
v -0.048 -0.04 -0.058399998
v -0.048 -0.04 -0.06
v 0.040000003 -0.048 -0.058399998
v 0.040000003 -0.048 -0.06
v -0.04 -0.048 -0.058399998
v -0.04 -0.048 -0.06
v -0.02 -0.048 -0.06
v 0.02 -0.048 -0.06
v 0.048000004 -0.04 -0.058399998
v 0.048000004 -0.04 -0.06
v 0.040000003 -0.048 -0.058399998
v 0.040000003 -0.048 -0.06
v 0.048000004 0.040000003 -0.058399998
v 0.048000004 0.040000003 -0.06
v 0.048000004 -0.04 -0.058399998
v 0.048000004 -0.04 -0.06
v 0.048000004 -0.02 -0.06
v 0.048000004 0.02 -0.06
v 0.040000003 0.048000004 -0.058399998
v 0.040000003 0.048000004 -0.06
v 0.048000004 0.040000003 -0.058399998
v 0.048000004 0.040000003 -0.06
v -0.048 0.040000003 -0.058399998
v -0.04 0.048000004 -0.058399998
v -0.048 -0.04 -0.058399998
v -0.04 -0.048 -0.058399998
v 0.040000003 -0.048 -0.058399998
v 0.048000004 -0.04 -0.058399998
v 0.048000004 0.040000003 -0.058399998
v 0.040000003 0.048000004 -0.058399998
v -0.058399998 0.048000004 0.040000003
v -0.06 0.048000004 0.040000003
v -0.058399998 0.048000004 -0.04
v -0.06 0.048000004 -0.04
v -0.06 0.048000004 -0.02
v -0.06 0.048000004 0.02
v -0.058399998 0.040000003 0.048000004
v -0.06 0.040000003 0.048000004
v -0.058399998 0.048000004 0.040000003
v -0.06 0.048000004 0.040000003
v -0.058399998 -0.04 0.048000004
v -0.06 -0.04 0.048000004
v -0.058399998 0.040000003 0.048000004
v -0.06 0.040000003 0.048000004
v -0.06 0.02 0.048000004
v -0.06 -0.02 0.048000004
v -0.058399998 -0.048 0.040000003
v -0.06 -0.048 0.040000003
v -0.058399998 -0.04 0.048000004
v -0.06 -0.04 0.048000004
v -0.058399998 -0.048 -0.04
v -0.06 -0.048 -0.04
v -0.058399998 -0.048 0.040000003
v -0.06 -0.048 0.040000003
v -0.06 -0.048 0.02
v -0.06 -0.048 -0.02
v -0.058399998 -0.04 -0.048
v -0.06 -0.04 -0.048
v -0.058399998 -0.048 -0.04
v -0.06 -0.048 -0.04
v -0.058399998 0.040000003 -0.048
v -0.06 0.040000003 -0.048
v -0.058399998 -0.04 -0.048
v -0.06 -0.04 -0.048
v -0.06 -0.02 -0.048
v -0.06 0.02 -0.048
v -0.058399998 0.048000004 -0.04
v -0.06 0.048000004 -0.04
v -0.058399998 0.040000003 -0.048
v -0.06 0.040000003 -0.048
v -0.058399998 0.040000003 0.048000004
v -0.058399998 0.048000004 0.040000003
v -0.058399998 -0.04 0.048000004
v -0.058399998 -0.048 0.040000003
v -0.058399998 -0.048 -0.04
v -0.058399998 -0.04 -0.048
v -0.058399998 0.040000003 -0.048
v -0.058399998 0.048000004 -0.04
v 0.040000003 0.048000004 0.0584
v 0.040000003 0.048000004 0.06
v -0.04 0.048000004 0.0584
v -0.04 0.048000004 0.06
v -0.02 0.048000004 0.06
v 0.02 0.048000004 0.06
v 0.048000004 0.040000003 0.0584
v 0.048000004 0.040000003 0.06
v 0.040000003 0.048000004 0.0584
v 0.040000003 0.048000004 0.06
v 0.048000004 -0.04 0.0584
v 0.048000004 -0.04 0.06
v 0.048000004 0.040000003 0.0584
v 0.048000004 0.040000003 0.06
v 0.048000004 0.02 0.06
v 0.048000004 -0.02 0.06
v 0.040000003 -0.048 0.0584
v 0.040000003 -0.048 0.06
v 0.048000004 -0.04 0.0584
v 0.048000004 -0.04 0.06
v -0.04 -0.048 0.0584
v -0.04 -0.048 0.06
v 0.040000003 -0.048 0.0584
v 0.040000003 -0.048 0.06
v 0.02 -0.048 0.06
v -0.02 -0.048 0.06
v -0.048 -0.04 0.0584
v -0.048 -0.04 0.06
v -0.04 -0.048 0.0584
v -0.04 -0.048 0.06
v -0.048 0.040000003 0.0584
v -0.048 0.040000003 0.06
v -0.048 -0.04 0.0584
v -0.048 -0.04 0.06
v -0.048 -0.02 0.06
v -0.048 0.02 0.06
v -0.04 0.048000004 0.0584
v -0.04 0.048000004 0.06
v -0.048 0.040000003 0.0584
v -0.048 0.040000003 0.06
v 0.048000004 0.040000003 0.0584
v 0.040000003 0.048000004 0.0584
v 0.048000004 -0.04 0.0584
v 0.040000003 -0.048 0.0584
v -0.04 -0.048 0.0584
v -0.048 -0.04 0.0584
v -0.048 0.040000003 0.0584
v -0.04 0.048000004 0.0584
v 0.02 0.05543 -0.051999997
v -0.02 0.05543 -0.051999997
v -0.02 0.05543 -0.05257
v 0.02 0.05543 -0.05257
v -0.051999997 0.05543 -0.02
v -0.051999997 0.05543 0.02
v -0.05257 0.05543 0.02
v -0.05257 0.05543 -0.02
v -0.02 0.05543 0.052000005
v 0.02 0.05543 0.052000005
v 0.02 0.05543 0.052570004
v -0.02 0.05543 0.052570004
v 0.052000005 0.05543 0.02
v 0.052000005 0.05543 -0.02
v 0.052570004 0.05543 -0.02
v 0.052570004 0.05543 0.02
f 485 489 488
f 488 489 485
f 487 486 485
f 485 486 487
f 487 485 488
f 488 485 487
f 494 490 489
f 489 490 494
f 494 489 485
f 485 489 494
f 492 494 493
f 493 494 492
f 491 490 494
f 494 490 491
f 491 494 492
f 492 494 491
f 496 499 498
f 498 499 496
f 497 495 496
f 496 495 497
f 497 496 498
f 498 496 497
f 504 500 499
f 499 500 504
f 504 499 496
f 496 499 504
f 502 504 503
f 503 504 502
f 501 500 504
f 504 500 501
f 501 504 502
f 502 504 501
f 506 509 508
f 508 509 506
f 507 505 506
f 506 505 507
f 507 506 508
f 508 506 507
f 514 510 509
f 509 510 514
f 514 509 506
f 506 509 514
f 512 514 513
f 513 514 512
f 511 510 514
f 514 510 511
f 511 514 512
f 512 514 511
f 515 519 518
f 518 519 515
f 517 516 515
f 515 516 517
f 517 515 518
f 518 515 517
f 524 520 519
f 519 520 524
f 524 519 515
f 515 519 524
f 522 524 523
f 523 524 522
f 521 520 524
f 524 520 521
f 521 524 522
f 522 524 521
f 527 525 526
f 526 525 527
f 527 528 525
f 525 528 527
f 532 529 530
f 530 529 532
f 532 531 529
f 529 531 532
f 536 533 534
f 534 533 536
f 536 534 535
f 535 534 536
f 537 539 538
f 538 539 537
f 537 540 539
f 539 540 537
f 544 541 542
f 542 541 544
f 544 543 541
f 541 543 544
f 545 546 547
f 547 546 545
f 545 547 548
f 548 547 545
f 550 552 551
f 551 552 550
f 550 549 552
f 552 549 550
f 556 553 554
f 554 553 556
f 556 555 553
f 553 555 556
f 557 558 559
f 559 558 557
f 557 559 560
f 560 559 557
f 562 564 563
f 563 564 562
f 562 561 564
f 564 561 562
f 568 565 566
f 566 565 568
f 568 567 565
f 565 567 568
f 570 572 569
f 569 572 570
f 571 572 570
f 570 572 571
f 575 574 573
f 573 574 575
f 575 573 576
f 576 573 575
f 577 580 579
f 579 580 577
f 577 578 580
f 580 578 577
f 585 583 584
f 584 583 585
f 582 585 581
f 581 585 582
f 582 583 585
f 585 583 582
f 587 586 590
f 590 586 587
f 589 588 587
f 587 588 589
f 589 587 590
f 590 587 589
f 594 592 591
f 591 592 594
f 594 593 592
f 592 593 594
f 596 599 595
f 595 599 596
f 597 598 599
f 599 598 597
f 596 597 599
f 599 597 596
f 603 602 600
f 600 602 603
f 604 600 601
f 601 600 604
f 603 600 604
f 604 600 603
f 605 608 607
f 607 608 605
f 605 606 608
f 608 606 605
f 612 609 610
f 610 609 612
f 612 610 611
f 611 610 612
f 616 615 614
f 614 615 616
f 613 616 614
f 614 616 613
f 617 620 619
f 619 620 617
f 617 618 620
f 620 618 617
f 624 621 622
f 622 621 624
f 624 622 623
f 623 622 624
f 626 628 627
f 627 628 626
f 626 625 628
f 628 625 626
f 630 632 631
f 631 632 630
f 630 629 632
f 632 629 630
f 634 637 633
f 633 637 634
f 635 636 637
f 637 636 635
f 634 635 637
f 637 635 634
f 641 640 638
f 638 640 641
f 642 638 639
f 639 638 642
f 641 638 642
f 642 638 641
f 646 643 644
f 644 643 646
f 646 645 643
f 643 645 646
f 651 649 650
f 650 649 651
f 648 651 647
f 647 651 648
f 648 649 651
f 651 649 648
f 653 652 656
f 656 652 653
f 655 654 653
f 653 654 655
f 655 653 656
f 656 653 655
f 660 657 658
f 658 657 660
f 660 659 657
f 657 659 660
f 664 661 662
f 662 661 664
f 664 662 663
f 663 662 664
f 668 667 666
f 666 667 668
f 665 668 666
f 666 668 665
f 672 669 670
f 670 669 672
f 672 671 669
f 669 671 672
f 673 674 675
f 675 674 673
f 673 675 676
f 676 675 673
f 677 680 679
f 679 680 677
f 678 677 679
f 679 677 678
f 682 681 683
f 683 681 682
f 682 683 684
f 684 683 682
f 686 685 687
f 687 685 686
f 691 688 690
f 690 688 691
f 689 688 691
f 691 688 689
f 694 693 692
f 692 693 694
f 694 692 695
f 695 692 694
f 696 698 697
f 697 698 696
f 696 699 698
f 698 699 696
f 701 700 702
f 702 700 701
f 701 702 703
f 703 702 701
f 706 704 705
f 705 704 706
f 707 708 709
f 709 708 707
f 712 711 710
f 710 711 712
f 712 710 713
f 713 710 712
f 717 716 715
f 715 716 717
f 714 717 715
f 715 717 714
f 718 719 720
f 720 719 718
f 722 721 723
f 723 721 722
f 722 723 724
f 724 723 722
f 727 726 725
f 725 726 727
f 727 725 728
f 728 725 727
f 733 732 731
f 731 732 733
f 729 730 734
f 734 730 729
f 729 733 731
f 731 733 729
f 729 734 733
f 733 734 729
f 735 738 737
f 737 738 735
f 735 736 738
f 738 736 735
f 743 742 741
f 741 742 743
f 739 740 744
f 744 740 739
f 739 743 741
f 741 743 739
f 739 744 743
f 743 744 739
f 745 748 747
f 747 748 745
f 745 746 748
f 748 746 745
f 753 752 751
f 751 752 753
f 749 750 754
f 754 750 749
f 749 753 751
f 751 753 749
f 749 754 753
f 753 754 749
f 756 758 757
f 757 758 756
f 755 756 757
f 757 756 755
f 763 762 761
f 761 762 763
f 759 760 764
f 764 760 759
f 759 763 761
f 761 763 759
f 759 764 763
f 763 764 759
f 765 768 767
f 767 768 765
f 765 766 768
f 768 766 765
f 772 774 773
f 773 774 772
f 775 774 772
f 772 774 775
f 776 775 772
f 772 775 776
f 771 776 772
f 772 776 771
f 770 771 769
f 769 771 770
f 770 776 771
f 771 776 770
f 782 777 778
f 778 777 782
f 779 782 781
f 781 782 779
f 779 777 782
f 782 777 779
f 780 779 781
f 781 779 780
f 786 783 784
f 784 783 786
f 786 785 783
f 783 785 786
f 792 787 788
f 788 787 792
f 789 791 790
f 790 791 789
f 787 791 789
f 789 791 787
f 787 792 791
f 791 792 787
f 796 793 794
f 794 793 796
f 796 795 793
f 793 795 796
f 802 797 798
f 798 797 802
f 799 802 801
f 801 802 799
f 799 797 802
f 802 797 799
f 800 799 801
f 801 799 800
f 806 803 804
f 804 803 806
f 806 805 803
f 803 805 806
f 811 810 809
f 809 810 811
f 808 812 807
f 807 812 808
f 807 811 809
f 809 811 807
f 807 812 811
f 811 812 807
f 816 813 814
f 814 813 816
f 816 815 813
f 813 815 816
f 817 820 819
f 819 820 817
f 817 821 820
f 820 821 817
f 818 821 817
f 817 821 818
f 822 821 818
f 818 821 822
f 823 818 824
f 824 818 823
f 823 822 818
f 818 822 823
f 830 825 826
f 826 825 830
f 827 829 828
f 828 829 827
f 825 829 827
f 827 829 825
f 825 830 829
f 829 830 825
f 831 834 833
f 833 834 831
f 831 832 834
f 834 832 831
f 840 835 836
f 836 835 840
f 837 839 838
f 838 839 837
f 835 839 837
f 837 839 835
f 835 840 839
f 839 840 835
f 841 844 843
f 843 844 841
f 841 842 844
f 844 842 841
f 849 848 847
f 847 848 849
f 846 850 845
f 845 850 846
f 845 849 847
f 847 849 845
f 845 850 849
f 849 850 845
f 852 854 853
f 853 854 852
f 851 852 853
f 853 852 851
f 859 858 857
f 857 858 859
f 856 860 855
f 855 860 856
f 855 859 857
f 857 859 855
f 855 860 859
f 859 860 855
f 861 864 863
f 863 864 861
f 861 862 864
f 864 862 861
f 865 868 867
f 867 868 865
f 865 869 868
f 868 869 865
f 866 869 865
f 865 869 866
f 870 869 866
f 866 869 870
f 871 866 872
f 872 866 871
f 871 870 866
f 866 870 871
f 877 876 875
f 875 876 877
f 873 874 878
f 878 874 873
f 873 877 875
f 875 877 873
f 873 878 877
f 877 878 873
f 879 882 881
f 881 882 879
f 879 880 882
f 882 880 879
f 888 883 884
f 884 883 888
f 885 887 886
f 886 887 885
f 883 887 885
f 885 887 883
f 883 888 887
f 887 888 883
f 889 892 891
f 891 892 889
f 889 890 892
f 892 890 889
f 897 896 895
f 895 896 897
f 893 894 898
f 898 894 893
f 893 897 895
f 895 897 893
f 893 898 897
f 897 898 893
f 900 902 901
f 901 902 900
f 899 900 901
f 901 900 899
f 907 906 905
f 905 906 907
f 904 908 903
f 903 908 904
f 903 907 905
f 905 907 903
f 903 908 907
f 907 908 903
f 909 912 911
f 911 912 909
f 909 910 912
f 912 910 909
f 913 916 915
f 915 916 913
f 913 917 916
f 916 917 913
f 914 917 913
f 913 917 914
f 918 917 914
f 914 917 918
f 919 914 920
f 920 914 919
f 919 918 914
f 914 918 919
f 925 924 923
f 923 924 925
f 922 926 921
f 921 926 922
f 921 925 923
f 923 925 921
f 921 926 925
f 925 926 921
f 930 927 928
f 928 927 930
f 930 929 927
f 927 929 930
f 936 931 932
f 932 931 936
f 933 935 934
f 934 935 933
f 931 935 933
f 933 935 931
f 931 936 935
f 935 936 931
f 940 937 938
f 938 937 940
f 940 939 937
f 937 939 940
f 946 941 942
f 942 941 946
f 943 945 944
f 944 945 943
f 941 945 943
f 943 945 941
f 941 946 945
f 945 946 941
f 950 947 948
f 948 947 950
f 950 949 947
f 947 949 950
f 955 954 953
f 953 954 955
f 952 956 951
f 951 956 952
f 951 955 953
f 953 955 951
f 951 956 955
f 955 956 951
f 960 957 958
f 958 957 960
f 960 959 957
f 957 959 960
f 961 964 963
f 963 964 961
f 961 965 964
f 964 965 961
f 962 965 961
f 961 965 962
f 966 965 962
f 962 965 966
f 967 962 968
f 968 962 967
f 967 966 962
f 962 966 967
f 971 970 969
f 969 970 971
f 971 969 972
f 972 969 971
f 975 974 973
f 973 974 975
f 975 973 976
f 976 973 975
f 979 978 977
f 977 978 979
f 979 977 980
f 980 977 979
f 983 982 981
f 981 982 983
f 983 981 984
f 984 981 983
g seal_985
usemtl seal
v 0.048000004 0.040000003 -0.06
v 0.048000004 0.040000003 -0.058399998
v 0.048000004 -0.04 -0.06
v 0.048000004 -0.04 -0.058399998
v 0.048000004 -0.04 -0.06
v 0.048000004 -0.04 -0.058399998
v 0.040000003 -0.048 -0.06
v 0.040000003 -0.048 -0.058399998
v 0.040000003 -0.048 -0.06
v 0.040000003 -0.048 -0.058399998
v -0.04 -0.048 -0.06
v -0.04 -0.048 -0.058399998
v -0.04 -0.048 -0.06
v -0.04 -0.048 -0.058399998
v -0.048 -0.04 -0.06
v -0.048 -0.04 -0.058399998
v -0.048 -0.04 -0.06
v -0.048 -0.04 -0.058399998
v -0.048 0.040000003 -0.06
v -0.048 0.040000003 -0.058399998
v -0.048 0.040000003 -0.06
v -0.048 0.040000003 -0.058399998
v -0.04 0.048000004 -0.06
v -0.04 0.048000004 -0.058399998
v -0.04 0.048000004 -0.06
v -0.04 0.048000004 -0.058399998
v 0.040000003 0.048000004 -0.06
v 0.040000003 0.048000004 -0.058399998
v 0.040000003 0.048000004 -0.06
v 0.040000003 0.048000004 -0.058399998
v 0.048000004 0.040000003 -0.06
v 0.048000004 0.040000003 -0.058399998
v 0.040000003 0.048000004 -0.06
v 0.048000004 0.040000003 -0.06
v -0.04 0.048000004 -0.06
v -0.048 0.040000003 -0.06
v -0.048 -0.04 -0.06
v -0.04 -0.048 -0.06
v 0.040000003 -0.048 -0.06
v 0.048000004 -0.04 -0.06
v -0.031999998 -0.031999998 -0.06
v -0.031999998 0.032 -0.06
v 0.032 0.032 -0.06
v 0.032 -0.031999998 -0.06
v 0.048000004 0.040000003 -0.058399998
v 0.048000004 -0.04 -0.058399998
v 0.040000003 0.048000004 -0.058399998
v -0.04 0.048000004 -0.058399998
v -0.048 0.040000003 -0.058399998
v -0.048 -0.04 -0.058399998
v -0.04 -0.048 -0.058399998
v 0.040000003 -0.048 -0.058399998
v 0.032 0.032 -0.059919998
v 0.032 0.032 -0.06
v 0.032 -0.031999998 -0.059919998
v 0.032 -0.031999998 -0.06
v -0.031999998 0.032 -0.059919998
v -0.031999998 0.032 -0.06
v 0.032 0.032 -0.059919998
v 0.032 0.032 -0.06
v -0.031999998 -0.031999998 -0.059919998
v -0.031999998 -0.031999998 -0.06
v -0.031999998 0.032 -0.059919998
v -0.031999998 0.032 -0.06
v 0.032 -0.031999998 -0.059919998
v 0.032 -0.031999998 -0.06
v -0.031999998 -0.031999998 -0.059919998
v -0.031999998 -0.031999998 -0.06
v 0.032 0.032 -0.059919998
v 0.032 -0.031999998 -0.059919998
v -0.031999998 -0.031999998 -0.059919998
v -0.031999998 0.032 -0.059919998
v 0.06 0.040000003 0.048000004
v 0.0584 0.040000003 0.048000004
v 0.06 -0.04 0.048000004
v 0.0584 -0.04 0.048000004
v 0.06 -0.04 0.048000004
v 0.0584 -0.04 0.048000004
v 0.06 -0.048 0.040000003
v 0.0584 -0.048 0.040000003
v 0.06 -0.048 0.040000003
v 0.0584 -0.048 0.040000003
v 0.06 -0.048 -0.04
v 0.0584 -0.048 -0.04
v 0.06 -0.048 -0.04
v 0.0584 -0.048 -0.04
v 0.06 -0.04 -0.048
v 0.0584 -0.04 -0.048
v 0.06 -0.04 -0.048
v 0.0584 -0.04 -0.048
v 0.06 0.040000003 -0.048
v 0.0584 0.040000003 -0.048
v 0.06 0.040000003 -0.048
v 0.0584 0.040000003 -0.048
v 0.06 0.048000004 -0.04
v 0.0584 0.048000004 -0.04
v 0.06 0.048000004 -0.04
v 0.0584 0.048000004 -0.04
v 0.06 0.048000004 0.040000003
v 0.0584 0.048000004 0.040000003
v 0.06 0.048000004 0.040000003
v 0.0584 0.048000004 0.040000003
v 0.06 0.040000003 0.048000004
v 0.0584 0.040000003 0.048000004
v 0.06 0.048000004 0.040000003
v 0.06 0.040000003 0.048000004
v 0.06 0.048000004 -0.04
v 0.06 0.040000003 -0.048
v 0.06 -0.04 -0.048
v 0.06 -0.048 -0.04
v 0.06 -0.048 0.040000003
v 0.06 -0.04 0.048000004
v 0.06 -0.031999998 -0.031999998
v 0.06 0.032 -0.031999998
v 0.06 0.032 0.032
v 0.06 -0.031999998 0.032
v 0.0584 0.040000003 0.048000004
v 0.0584 -0.04 0.048000004
v 0.0584 0.048000004 0.040000003
v 0.0584 0.048000004 -0.04
v 0.0584 0.040000003 -0.048
v 0.0584 -0.04 -0.048
v 0.0584 -0.048 -0.04
v 0.0584 -0.048 0.040000003
v 0.05992 0.032 0.032
v 0.06 0.032 0.032
v 0.05992 -0.031999998 0.032
v 0.06 -0.031999998 0.032
v 0.05992 0.032 -0.031999998
v 0.06 0.032 -0.031999998
v 0.05992 0.032 0.032
v 0.06 0.032 0.032
v 0.05992 -0.031999998 -0.031999998
v 0.06 -0.031999998 -0.031999998
v 0.05992 0.032 -0.031999998
v 0.06 0.032 -0.031999998
v 0.05992 -0.031999998 0.032
v 0.06 -0.031999998 0.032
v 0.05992 -0.031999998 -0.031999998
v 0.06 -0.031999998 -0.031999998
v 0.05992 0.032 0.032
v 0.05992 -0.031999998 0.032
v 0.05992 -0.031999998 -0.031999998
v 0.05992 0.032 -0.031999998
v -0.06 0.040000003 -0.048
v -0.058399998 0.040000003 -0.048
v -0.06 -0.04 -0.048
v -0.058399998 -0.04 -0.048
v -0.06 -0.04 -0.048
v -0.058399998 -0.04 -0.048
v -0.06 -0.048 -0.04
v -0.058399998 -0.048 -0.04
v -0.06 -0.048 -0.04
v -0.058399998 -0.048 -0.04
v -0.06 -0.048 0.040000003
v -0.058399998 -0.048 0.040000003
v -0.06 -0.048 0.040000003
v -0.058399998 -0.048 0.040000003
v -0.06 -0.04 0.048000004
v -0.058399998 -0.04 0.048000004
v -0.06 -0.04 0.048000004
v -0.058399998 -0.04 0.048000004
v -0.06 0.040000003 0.048000004
v -0.058399998 0.040000003 0.048000004
v -0.06 0.040000003 0.048000004
v -0.058399998 0.040000003 0.048000004
v -0.06 0.048000004 0.040000003
v -0.058399998 0.048000004 0.040000003
v -0.06 0.048000004 0.040000003
v -0.058399998 0.048000004 0.040000003
v -0.06 0.048000004 -0.04
v -0.058399998 0.048000004 -0.04
v -0.06 0.048000004 -0.04
v -0.058399998 0.048000004 -0.04
v -0.06 0.040000003 -0.048
v -0.058399998 0.040000003 -0.048
v -0.06 0.048000004 -0.04
v -0.06 0.040000003 -0.048
v -0.06 0.048000004 0.040000003
v -0.06 0.040000003 0.048000004
v -0.06 -0.04 0.048000004
v -0.06 -0.048 0.040000003
v -0.06 -0.048 -0.04
v -0.06 -0.04 -0.048
v -0.06 -0.031999998 0.032
v -0.06 0.032 0.032
v -0.06 0.032 -0.031999998
v -0.06 -0.031999998 -0.031999998
v -0.058399998 0.040000003 -0.048
v -0.058399998 -0.04 -0.048
v -0.058399998 0.048000004 -0.04
v -0.058399998 0.048000004 0.040000003
v -0.058399998 0.040000003 0.048000004
v -0.058399998 -0.04 0.048000004
v -0.058399998 -0.048 0.040000003
v -0.058399998 -0.048 -0.04
v -0.059919998 0.032 -0.031999998
v -0.06 0.032 -0.031999998
v -0.059919998 -0.031999998 -0.031999998
v -0.06 -0.031999998 -0.031999998
v -0.059919998 0.032 0.032
v -0.06 0.032 0.032
v -0.059919998 0.032 -0.031999998
v -0.06 0.032 -0.031999998
v -0.059919998 -0.031999998 0.032
v -0.06 -0.031999998 0.032
v -0.059919998 0.032 0.032
v -0.06 0.032 0.032
v -0.059919998 -0.031999998 -0.031999998
v -0.06 -0.031999998 -0.031999998
v -0.059919998 -0.031999998 0.032
v -0.06 -0.031999998 0.032
v -0.059919998 0.032 -0.031999998
v -0.059919998 -0.031999998 -0.031999998
v -0.059919998 -0.031999998 0.032
v -0.059919998 0.032 0.032
v -0.048 0.040000003 0.06
v -0.048 0.040000003 0.0584
v -0.048 -0.04 0.06
v -0.048 -0.04 0.0584
v -0.048 -0.04 0.06
v -0.048 -0.04 0.0584
v -0.04 -0.048 0.06
v -0.04 -0.048 0.0584
v -0.04 -0.048 0.06
v -0.04 -0.048 0.0584
v 0.040000003 -0.048 0.06
v 0.040000003 -0.048 0.0584
v 0.040000003 -0.048 0.06
v 0.040000003 -0.048 0.0584
v 0.048000004 -0.04 0.06
v 0.048000004 -0.04 0.0584
v 0.048000004 -0.04 0.06
v 0.048000004 -0.04 0.0584
v 0.048000004 0.040000003 0.06
v 0.048000004 0.040000003 0.0584
v 0.048000004 0.040000003 0.06
v 0.048000004 0.040000003 0.0584
v 0.040000003 0.048000004 0.06
v 0.040000003 0.048000004 0.0584
v 0.040000003 0.048000004 0.06
v 0.040000003 0.048000004 0.0584
v -0.04 0.048000004 0.06
v -0.04 0.048000004 0.0584
v -0.04 0.048000004 0.06
v -0.04 0.048000004 0.0584
v -0.048 0.040000003 0.06
v -0.048 0.040000003 0.0584
v -0.04 0.048000004 0.06
v -0.048 0.040000003 0.06
v 0.040000003 0.048000004 0.06
v 0.048000004 0.040000003 0.06
v 0.048000004 -0.04 0.06
v 0.040000003 -0.048 0.06
v -0.04 -0.048 0.06
v -0.048 -0.04 0.06
v 0.032 -0.031999998 0.06
v 0.032 0.032 0.06
v -0.031999998 0.032 0.06
v -0.031999998 -0.031999998 0.06
v -0.048 0.040000003 0.0584
v -0.048 -0.04 0.0584
v -0.04 0.048000004 0.0584
v 0.040000003 0.048000004 0.0584
v 0.048000004 0.040000003 0.0584
v 0.048000004 -0.04 0.0584
v 0.040000003 -0.048 0.0584
v -0.04 -0.048 0.0584
v -0.031999998 0.032 0.05992
v -0.031999998 0.032 0.06
v -0.031999998 -0.031999998 0.05992
v -0.031999998 -0.031999998 0.06
v 0.032 0.032 0.05992
v 0.032 0.032 0.06
v -0.031999998 0.032 0.05992
v -0.031999998 0.032 0.06
v 0.032 -0.031999998 0.05992
v 0.032 -0.031999998 0.06
v 0.032 0.032 0.05992
v 0.032 0.032 0.06
v -0.031999998 -0.031999998 0.05992
v -0.031999998 -0.031999998 0.06
v 0.032 -0.031999998 0.05992
v 0.032 -0.031999998 0.06
v -0.031999998 0.032 0.05992
v -0.031999998 -0.031999998 0.05992
v 0.032 -0.031999998 0.05992
v 0.032 0.032 0.05992
f 985 988 987
f 987 988 985
f 986 988 985
f 985 988 986
f 989 992 991
f 991 992 989
f 989 990 992
f 992 990 989
f 996 993 994
f 994 993 996
f 995 993 996
f 996 993 995
f 997 1000 999
f 999 1000 997
f 997 998 1000
f 1000 998 997
f 1004 1001 1002
f 1002 1001 1004
f 1003 1001 1004
f 1004 1001 1003
f 1005 1008 1007
f 1007 1008 1005
f 1005 1006 1008
f 1008 1006 1005
f 1009 1012 1011
f 1011 1012 1009
f 1010 1012 1009
f 1009 1012 1010
f 1013 1016 1015
f 1015 1016 1013
f 1013 1014 1016
f 1016 1014 1013
f 1025 1022 1021
f 1021 1022 1025
f 1028 1023 1022
f 1022 1023 1028
f 1028 1022 1025
f 1025 1022 1028
f 1026 1021 1020
f 1020 1021 1026
f 1026 1025 1021
f 1021 1025 1026
f 1024 1023 1028
f 1028 1023 1024
f 1019 1026 1020
f 1020 1026 1019
f 1017 1027 1026
f 1026 1027 1017
f 1017 1026 1019
f 1019 1026 1017
f 1018 1028 1027
f 1027 1028 1018
f 1018 1024 1028
f 1028 1024 1018
f 1018 1027 1017
f 1017 1027 1018
f 1036 1033 1034
f 1034 1033 1036
f 1036 1034 1035
f 1035 1034 1036
f 1030 1033 1036
f 1036 1033 1030
f 1032 1033 1030
f 1030 1033 1032
f 1031 1030 1029
f 1029 1030 1031
f 1031 1032 1030
f 1030 1032 1031
f 1039 1037 1038
f 1038 1037 1039
f 1040 1039 1038
f 1038 1039 1040
f 1041 1044 1043
f 1043 1044 1041
f 1042 1044 1041
f 1041 1044 1042
f 1047 1045 1046
f 1046 1045 1047
f 1048 1047 1046
f 1046 1047 1048
f 1052 1049 1050
f 1050 1049 1052
f 1051 1049 1052
f 1052 1049 1051
f 1056 1053 1054
f 1054 1053 1056
f 1056 1054 1055
f 1055 1054 1056
f 1057 1060 1059
f 1059 1060 1057
f 1058 1060 1057
f 1057 1060 1058
f 1061 1064 1063
f 1063 1064 1061
f 1061 1062 1064
f 1064 1062 1061
f 1068 1065 1066
f 1066 1065 1068
f 1067 1065 1068
f 1068 1065 1067
f 1069 1072 1071
f 1071 1072 1069
f 1069 1070 1072
f 1072 1070 1069
f 1076 1073 1074
f 1074 1073 1076
f 1075 1073 1076
f 1076 1073 1075
f 1077 1080 1079
f 1079 1080 1077
f 1077 1078 1080
f 1080 1078 1077
f 1081 1084 1083
f 1083 1084 1081
f 1082 1084 1081
f 1081 1084 1082
f 1085 1088 1087
f 1087 1088 1085
f 1085 1086 1088
f 1088 1086 1085
f 1097 1094 1093
f 1093 1094 1097
f 1100 1095 1094
f 1094 1095 1100
f 1100 1094 1097
f 1097 1094 1100
f 1098 1093 1092
f 1092 1093 1098
f 1098 1097 1093
f 1093 1097 1098
f 1096 1095 1100
f 1100 1095 1096
f 1091 1098 1092
f 1092 1098 1091
f 1089 1099 1098
f 1098 1099 1089
f 1089 1098 1091
f 1091 1098 1089
f 1090 1100 1099
f 1099 1100 1090
f 1090 1096 1100
f 1100 1096 1090
f 1090 1099 1089
f 1089 1099 1090
f 1108 1105 1106
f 1106 1105 1108
f 1108 1106 1107
f 1107 1106 1108
f 1102 1105 1108
f 1108 1105 1102
f 1104 1105 1102
f 1102 1105 1104
f 1103 1102 1101
f 1101 1102 1103
f 1103 1104 1102
f 1102 1104 1103
f 1111 1109 1110
f 1110 1109 1111
f 1112 1111 1110
f 1110 1111 1112
f 1113 1116 1115
f 1115 1116 1113
f 1114 1116 1113
f 1113 1116 1114
f 1119 1117 1118
f 1118 1117 1119
f 1120 1119 1118
f 1118 1119 1120
f 1124 1121 1122
f 1122 1121 1124
f 1123 1121 1124
f 1124 1121 1123
f 1128 1125 1126
f 1126 1125 1128
f 1128 1126 1127
f 1127 1126 1128
f 1129 1132 1131
f 1131 1132 1129
f 1130 1132 1129
f 1129 1132 1130
f 1133 1136 1135
f 1135 1136 1133
f 1133 1134 1136
f 1136 1134 1133
f 1140 1137 1138
f 1138 1137 1140
f 1139 1137 1140
f 1140 1137 1139
f 1141 1144 1143
f 1143 1144 1141
f 1141 1142 1144
f 1144 1142 1141
f 1148 1145 1146
f 1146 1145 1148
f 1147 1145 1148
f 1148 1145 1147
f 1149 1152 1151
f 1151 1152 1149
f 1149 1150 1152
f 1152 1150 1149
f 1153 1156 1155
f 1155 1156 1153
f 1154 1156 1153
f 1153 1156 1154
f 1157 1160 1159
f 1159 1160 1157
f 1157 1158 1160
f 1160 1158 1157
f 1169 1166 1165
f 1165 1166 1169
f 1172 1167 1166
f 1166 1167 1172
f 1172 1166 1169
f 1169 1166 1172
f 1170 1165 1164
f 1164 1165 1170
f 1170 1169 1165
f 1165 1169 1170
f 1168 1167 1172
f 1172 1167 1168
f 1163 1170 1164
f 1164 1170 1163
f 1161 1171 1170
f 1170 1171 1161
f 1161 1170 1163
f 1163 1170 1161
f 1162 1172 1171
f 1171 1172 1162
f 1162 1168 1172
f 1172 1168 1162
f 1162 1171 1161
f 1161 1171 1162
f 1180 1177 1178
f 1178 1177 1180
f 1180 1178 1179
f 1179 1178 1180
f 1174 1177 1180
f 1180 1177 1174
f 1176 1177 1174
f 1174 1177 1176
f 1175 1174 1173
f 1173 1174 1175
f 1175 1176 1174
f 1174 1176 1175
f 1183 1181 1182
f 1182 1181 1183
f 1184 1183 1182
f 1182 1183 1184
f 1185 1188 1187
f 1187 1188 1185
f 1186 1188 1185
f 1185 1188 1186
f 1191 1189 1190
f 1190 1189 1191
f 1192 1191 1190
f 1190 1191 1192
f 1196 1193 1194
f 1194 1193 1196
f 1195 1193 1196
f 1196 1193 1195
f 1200 1197 1198
f 1198 1197 1200
f 1200 1198 1199
f 1199 1198 1200
f 1201 1204 1203
f 1203 1204 1201
f 1202 1204 1201
f 1201 1204 1202
f 1205 1208 1207
f 1207 1208 1205
f 1205 1206 1208
f 1208 1206 1205
f 1212 1209 1210
f 1210 1209 1212
f 1211 1209 1212
f 1212 1209 1211
f 1213 1216 1215
f 1215 1216 1213
f 1213 1214 1216
f 1216 1214 1213
f 1220 1217 1218
f 1218 1217 1220
f 1219 1217 1220
f 1220 1217 1219
f 1221 1224 1223
f 1223 1224 1221
f 1221 1222 1224
f 1224 1222 1221
f 1225 1228 1227
f 1227 1228 1225
f 1226 1228 1225
f 1225 1228 1226
f 1229 1232 1231
f 1231 1232 1229
f 1229 1230 1232
f 1232 1230 1229
f 1241 1238 1237
f 1237 1238 1241
f 1244 1239 1238
f 1238 1239 1244
f 1244 1238 1241
f 1241 1238 1244
f 1242 1237 1236
f 1236 1237 1242
f 1242 1241 1237
f 1237 1241 1242
f 1240 1239 1244
f 1244 1239 1240
f 1235 1242 1236
f 1236 1242 1235
f 1233 1243 1242
f 1242 1243 1233
f 1233 1242 1235
f 1235 1242 1233
f 1234 1244 1243
f 1243 1244 1234
f 1234 1240 1244
f 1244 1240 1234
f 1234 1243 1233
f 1233 1243 1234
f 1252 1249 1250
f 1250 1249 1252
f 1252 1250 1251
f 1251 1250 1252
f 1246 1249 1252
f 1252 1249 1246
f 1248 1249 1246
f 1246 1249 1248
f 1247 1246 1245
f 1245 1246 1247
f 1247 1248 1246
f 1246 1248 1247
f 1255 1253 1254
f 1254 1253 1255
f 1256 1255 1254
f 1254 1255 1256
f 1257 1260 1259
f 1259 1260 1257
f 1258 1260 1257
f 1257 1260 1258
f 1263 1261 1262
f 1262 1261 1263
f 1264 1263 1262
f 1262 1263 1264
f 1268 1265 1266
f 1266 1265 1268
f 1267 1265 1268
f 1268 1265 1267
f 1272 1269 1270
f 1270 1269 1272
f 1272 1270 1271
f 1271 1270 1272
